<mxfile host="65bd71144e">
    <diagram id="qoqI1eCOlS6MK_xCDPAB" name="Page-1">
        <mxGraphModel dx="2064" dy="758" grid="1" gridSize="10" guides="1" tooltips="1" connect="1" arrows="1" fold="1" page="1" pageScale="1" pageWidth="827" pageHeight="1169" math="0" shadow="0">
            <root>
                <mxCell id="0"/>
                <mxCell id="1" parent="0"/>
                <mxCell id="2" value="Dashboard" style="rounded=1;whiteSpace=wrap;html=1;verticalAlign=top;fontSize=16;" vertex="1" parent="1">
                    <mxGeometry x="90" y="420" width="326" height="210" as="geometry"/>
                </mxCell>
                <mxCell id="3" value="/" style="rounded=0;whiteSpace=wrap;html=1;fontSize=16;" vertex="1" parent="1">
                    <mxGeometry x="128" y="460" width="250" height="30" as="geometry"/>
                </mxCell>
                <mxCell id="4" value="Landing" style="rounded=1;whiteSpace=wrap;html=1;verticalAlign=top;fontSize=16;" vertex="1" parent="1">
                    <mxGeometry x="650" y="420" width="326" height="210" as="geometry"/>
                </mxCell>
                <mxCell id="5" value="/" style="rounded=0;whiteSpace=wrap;html=1;fontSize=16;" vertex="1" parent="1">
                    <mxGeometry x="688" y="460" width="250" height="30" as="geometry"/>
                </mxCell>
            </root>
        </mxGraphModel>
    </diagram>
</mxfile>